<svg version="1.0" xmlns="http://www.w3.org/2000/svg" width="1200px" height="1120px" viewBox="0 0 1280 1200">
  <style>
    @keyframes blink {
      0% { opacity:1 }
      50% { opacity:0 }
      100% { opacity:1 }
    }
    g {
      animation: blink normal 1.5s infinite;
    }
  </style>

  <g transform="translate(0,1120) scale(0.1,-0.1)" fill="#ff0000">
    <path d="M6360 11188 c-19 -5 -73 -21 -120 -35 -47 -14 -125 -46 -173 -71 -173 -91 -49 108 -1463 -2352 -3319 -5775 -4548 -7928 -4581 -8018 -13 -35 -23 -76 -23 -92 0 -43 44 -206 74 -274 61 -137 173 -267 273 -317 l48 -24 5990 3 c3997 2 6007 6 6042 13 99 19 193 107 267 249 49 95 106 291 106 365 0 70 -39 168 -135 337 -556 979 -1712 2994 -4162 7253 -231 402 -671 1169 -978 1705 -307 536 -567 988 -578 1004 -30 42 -169 141 -261 186 -136 66 -252 90 -326 68z" />
  </g>
</svg>
